<?xml version="1.0" standalone="no"?>
<!DOCTYPE svg PUBLIC "-//W3C//DTD SVG 20010904//EN"
 "http://www.w3.org/TR/2001/REC-SVG-20010904/DTD/svg10.dtd">
<svg version="1.0" xmlns="http://www.w3.org/2000/svg"
 width="1040.000000pt" height="1040.000000pt" viewBox="0 0 1040.000000 1040.000000"
 preserveAspectRatio="xMidYMid meet">
<metadata>
Created by potrace 1.11, written by Peter Selinger 2001-2013
</metadata>
<g transform="translate(0.000000,1040.000000) scale(0.100000,-0.100000)"
fill="#000000" stroke="none">
<path d="M6575 8819 c-711 -32 -1338 -189 -1925 -480 -682 -339 -1188 -783
-1607 -1409 -341 -511 -621 -1244 -723 -1895 -32 -201 -60 -565 -44 -565 5 0
79 59 164 131 452 383 1099 877 1528 1166 l186 125 71 142 c288 571 726 1069
1170 1331 411 242 824 350 1340 350 279 0 417 -18 649 -82 540 -148 979 -537
1161 -1028 20 -55 38 -101 39 -102 2 -2 39 32 83 76 164 159 360 261 592 307
114 22 371 15 481 -14 131 -35 256 -92 363 -164 32 -22 61 -37 65 -34 8 9 -34
151 -88 296 -229 613 -721 1139 -1369 1465 -458 231 -955 353 -1568 385 -209
11 -304 11 -568 -1z"/>
<path d="M7200 7016 c-1548 -581 -3190 -1550 -4525 -2670 -793 -665 -1548
-1438 -2159 -2209 -43 -54 -76 -101 -74 -103 3 -2 47 31 99 74 1279 1057 2380
1891 3189 2418 772 503 1328 795 2000 1051 251 96 236 103 117 -55 -57 -75
-130 -180 -161 -232 -128 -210 -329 -652 -521 -1145 -96 -246 -254 -679 -250
-683 2 -2 77 39 167 91 909 524 2074 1048 3296 1482 l162 58 -16 25 c-71 108
-126 226 -159 338 -20 68 -45 221 -45 277 0 20 -5 37 -10 37 -6 0 -110 -30
-233 -66 -638 -189 -1119 -365 -1447 -529 -73 -36 -134 -64 -137 -61 -9 9 99
422 153 583 164 488 419 954 757 1381 5 6 6 12 1 12 -5 0 -97 -34 -204 -74z"/>
<path d="M9275 6551 c-159 -40 -291 -117 -400 -232 -251 -267 -291 -669 -97
-979 150 -238 405 -380 687 -380 243 0 472 108 626 295 56 66 140 233 159 310
107 449 -163 888 -608 989 -96 22 -275 20 -367 -3z"/>
<path d="M8628 4766 c-98 -34 -182 -66 -187 -71 -6 -6 -32 -62 -59 -125 -140
-328 -340 -658 -550 -910 -91 -110 -282 -298 -387 -383 -210 -169 -528 -350
-776 -441 -302 -111 -621 -163 -939 -153 -595 19 -1043 201 -1395 568 -160
167 -258 309 -341 498 -46 106 -96 275 -115 391 -7 41 -14 77 -15 79 -16 20
-1344 -914 -1344 -945 0 -2 29 -64 64 -137 144 -296 354 -560 621 -782 447
-370 924 -591 1519 -705 428 -81 1033 -99 1526 -44 1239 138 2291 685 3017
1569 337 410 630 946 798 1460 24 72 46 145 50 164 l7 34 -53 -32 c-327 -196
-712 -225 -1054 -79 -44 19 -106 51 -138 71 -31 20 -61 37 -65 36 -4 0 -87
-29 -184 -63z"/>
</g>
</svg>
